<?xml version="1.0" encoding="UTF-8"?><svg xmlns="http://www.w3.org/2000/svg" xmlns:xlink="http://www.w3.org/1999/xlink" fill-opacity="1" color-rendering="auto" color-interpolation="auto" text-rendering="auto" stroke="black" stroke-linecap="square" width="666" stroke-miterlimit="10" shape-rendering="auto" stroke-opacity="1" fill="black" stroke-dasharray="none" font-weight="normal" stroke-width="1" height="451" font-family="'Dialog'" font-style="normal" stroke-linejoin="miter" font-size="12px" stroke-dashoffset="0" image-rendering="auto">
  <!--Generated by ySVG 2.5-->
  <defs id="genericDefs"/>
  <g>
    <defs id="defs1">
      <clipPath clipPathUnits="userSpaceOnUse" id="clipPath1">
        <path d="M0 0 L666 0 L666 451 L0 451 L0 0 Z"/>
      </clipPath>
      <clipPath clipPathUnits="userSpaceOnUse" id="clipPath2">
        <path d="M-178 -156 L488 -156 L488 295 L-178 295 L-178 -156 Z"/>
      </clipPath>
    </defs>
    <g fill="white" text-rendering="geometricPrecision" shape-rendering="geometricPrecision" transform="translate(178,156)" stroke="white">
      <rect x="-178" width="666" height="451" y="-156" clip-path="url(#clipPath2)" stroke="none"/>
    </g>
    <g fill="silver" text-rendering="geometricPrecision" shape-rendering="geometricPrecision" transform="matrix(1,0,0,1,178,156)" stroke="silver">
      <rect x="19.096" y="163.6373" clip-path="url(#clipPath2)" width="449.328" rx="4" ry="4" height="60.6293" stroke="none"/>
    </g>
    <g text-rendering="geometricPrecision" stroke-miterlimit="1.45" shape-rendering="geometricPrecision" transform="matrix(1,0,0,1,178,156)" stroke-linecap="butt">
      <rect x="19.096" y="163.6373" clip-path="url(#clipPath2)" fill="none" width="449.328" rx="4" ry="4" height="60.6293"/>
    </g>
    <g fill="rgb(235,235,235)" text-rendering="geometricPrecision" shape-rendering="geometricPrecision" transform="matrix(1,0,0,1,178,156)" stroke="rgb(235,235,235)">
      <rect x="-162.2566" width="635.0166" height="22.3765" y="-140.5045" clip-path="url(#clipPath2)" stroke="none"/>
    </g>
    <g font-size="15px" stroke-linecap="butt" transform="matrix(1,0,0,1,178,156)" text-rendering="geometricPrecision" font-family="sans-serif" shape-rendering="geometricPrecision" stroke-miterlimit="1.45">
      <text x="225.2009" xml:space="preserve" y="-123.4239" clip-path="url(#clipPath2)" stroke="none">Build Tree Recursion, tree_depth = 3</text>
      <rect x="-162.2566" y="-140.5045" clip-path="url(#clipPath2)" fill="none" width="635.0166" stroke-dasharray="6,2" rx="4" ry="4" height="419.7628"/>
    </g>
    <g fill="white" text-rendering="geometricPrecision" shape-rendering="geometricPrecision" transform="matrix(1,0,0,1,178,156)" stroke="white">
      <circle r="18" clip-path="url(#clipPath2)" cx="94.76" cy="126.952" stroke="none"/>
    </g>
    <g stroke-linecap="butt" transform="matrix(1,0,0,1,178,156)" fill="navy" text-rendering="geometricPrecision" shape-rendering="geometricPrecision" stroke="navy" stroke-width="3" stroke-miterlimit="1.45">
      <circle fill="none" r="18" clip-path="url(#clipPath2)" cx="94.76" cy="126.952"/>
    </g>
    <g text-rendering="geometricPrecision" stroke-miterlimit="1.45" shape-rendering="geometricPrecision" font-family="sans-serif" transform="matrix(1,0,0,1,178,156)" stroke-linecap="butt">
      <text x="82.9182" xml:space="preserve" y="131.6659" clip-path="url(#clipPath2)" stroke="none">t = 1</text>
    </g>
    <g fill="white" text-rendering="geometricPrecision" shape-rendering="geometricPrecision" transform="matrix(1,0,0,1,178,156)" stroke="white">
      <circle r="18" clip-path="url(#clipPath2)" cx="289.76" cy="59.952" stroke="none"/>
    </g>
    <g stroke-linecap="butt" transform="matrix(1,0,0,1,178,156)" fill="navy" text-rendering="geometricPrecision" shape-rendering="geometricPrecision" stroke="navy" stroke-width="3" stroke-miterlimit="1.45">
      <circle fill="none" r="18" clip-path="url(#clipPath2)" cx="289.76" cy="59.952"/>
    </g>
    <g text-rendering="geometricPrecision" stroke-miterlimit="1.45" shape-rendering="geometricPrecision" font-family="sans-serif" transform="matrix(1,0,0,1,178,156)" stroke-linecap="butt">
      <text x="277.9182" xml:space="preserve" y="64.6659" clip-path="url(#clipPath2)" stroke="none">t = 2</text>
    </g>
    <g fill="white" text-rendering="geometricPrecision" shape-rendering="geometricPrecision" transform="matrix(1,0,0,1,178,156)" stroke="white">
      <circle r="18" clip-path="url(#clipPath2)" cx="197.76" cy="59.952" stroke="none"/>
    </g>
    <g stroke-linecap="butt" transform="matrix(1,0,0,1,178,156)" fill="navy" text-rendering="geometricPrecision" shape-rendering="geometricPrecision" stroke="navy" stroke-width="3" stroke-miterlimit="1.45">
      <circle fill="none" r="18" clip-path="url(#clipPath2)" cx="197.76" cy="59.952"/>
    </g>
    <g text-rendering="geometricPrecision" stroke-miterlimit="1.45" shape-rendering="geometricPrecision" font-family="sans-serif" transform="matrix(1,0,0,1,178,156)" stroke-linecap="butt">
      <text x="185.9182" xml:space="preserve" y="64.6659" clip-path="url(#clipPath2)" stroke="none">t = 2</text>
    </g>
    <g fill="white" text-rendering="geometricPrecision" shape-rendering="geometricPrecision" transform="matrix(1,0,0,1,178,156)" stroke="white">
      <circle r="18" clip-path="url(#clipPath2)" cx="206.76" cy="126.952" stroke="none"/>
    </g>
    <g stroke-linecap="butt" transform="matrix(1,0,0,1,178,156)" fill="navy" text-rendering="geometricPrecision" shape-rendering="geometricPrecision" stroke="navy" stroke-width="3" stroke-miterlimit="1.45">
      <circle fill="none" r="18" clip-path="url(#clipPath2)" cx="206.76" cy="126.952"/>
    </g>
    <g text-rendering="geometricPrecision" stroke-miterlimit="1.45" shape-rendering="geometricPrecision" font-family="sans-serif" transform="matrix(1,0,0,1,178,156)" stroke-linecap="butt">
      <text x="194.9182" xml:space="preserve" y="131.6659" clip-path="url(#clipPath2)" stroke="none">t = 1</text>
    </g>
    <g fill="white" text-rendering="geometricPrecision" shape-rendering="geometricPrecision" transform="matrix(1,0,0,1,178,156)" stroke="white">
      <circle r="18" clip-path="url(#clipPath2)" cx="243.76" cy="-7.048" stroke="none"/>
    </g>
    <g stroke-linecap="butt" transform="matrix(1,0,0,1,178,156)" fill="navy" text-rendering="geometricPrecision" shape-rendering="geometricPrecision" stroke="navy" stroke-width="3" stroke-miterlimit="1.45">
      <circle fill="none" r="18" clip-path="url(#clipPath2)" cx="243.76" cy="-7.048"/>
    </g>
    <g text-rendering="geometricPrecision" stroke-miterlimit="1.45" shape-rendering="geometricPrecision" font-family="sans-serif" transform="matrix(1,0,0,1,178,156)" stroke-linecap="butt">
      <text x="231.9182" xml:space="preserve" y="-2.3341" clip-path="url(#clipPath2)" stroke="none">t = 3</text>
    </g>
    <g fill="white" text-rendering="geometricPrecision" shape-rendering="geometricPrecision" transform="matrix(1,0,0,1,178,156)" stroke="white">
      <circle r="18" clip-path="url(#clipPath2)" cx="392.76" cy="126.952" stroke="none"/>
    </g>
    <g stroke-linecap="butt" transform="matrix(1,0,0,1,178,156)" fill="navy" text-rendering="geometricPrecision" shape-rendering="geometricPrecision" stroke="navy" stroke-width="3" stroke-miterlimit="1.45">
      <circle fill="none" r="18" clip-path="url(#clipPath2)" cx="392.76" cy="126.952"/>
    </g>
    <g text-rendering="geometricPrecision" stroke-miterlimit="1.45" shape-rendering="geometricPrecision" font-family="sans-serif" transform="matrix(1,0,0,1,178,156)" stroke-linecap="butt">
      <text x="380.9182" xml:space="preserve" y="131.6659" clip-path="url(#clipPath2)" stroke="none">t = 1</text>
    </g>
    <g fill="white" text-rendering="geometricPrecision" shape-rendering="geometricPrecision" transform="matrix(1,0,0,1,178,156)" stroke="white">
      <circle r="18" clip-path="url(#clipPath2)" cx="280.76" cy="126.952" stroke="none"/>
    </g>
    <g stroke-linecap="butt" transform="matrix(1,0,0,1,178,156)" fill="navy" text-rendering="geometricPrecision" shape-rendering="geometricPrecision" stroke="navy" stroke-width="3" stroke-miterlimit="1.45">
      <circle fill="none" r="18" clip-path="url(#clipPath2)" cx="280.76" cy="126.952"/>
    </g>
    <g text-rendering="geometricPrecision" stroke-miterlimit="1.45" shape-rendering="geometricPrecision" font-family="sans-serif" transform="matrix(1,0,0,1,178,156)" stroke-linecap="butt">
      <text x="268.9182" xml:space="preserve" y="131.6659" clip-path="url(#clipPath2)" stroke="none">t = 1</text>
    </g>
    <g fill="white" text-rendering="geometricPrecision" shape-rendering="geometricPrecision" transform="matrix(1,0,0,1,178,156)" stroke="white">
      <circle r="18" clip-path="url(#clipPath2)" cx="47.76" cy="193.952" stroke="none"/>
    </g>
    <g stroke-linecap="butt" transform="matrix(1,0,0,1,178,156)" fill="navy" text-rendering="geometricPrecision" shape-rendering="geometricPrecision" stroke="navy" stroke-width="3" stroke-miterlimit="1.45">
      <circle fill="none" r="18" clip-path="url(#clipPath2)" cx="47.76" cy="193.952"/>
    </g>
    <g text-rendering="geometricPrecision" stroke-miterlimit="1.45" shape-rendering="geometricPrecision" font-family="sans-serif" transform="matrix(1,0,0,1,178,156)" stroke-linecap="butt">
      <text x="35.9182" xml:space="preserve" y="198.6659" clip-path="url(#clipPath2)" stroke="none">t = 0</text>
    </g>
    <g fill="white" text-rendering="geometricPrecision" shape-rendering="geometricPrecision" transform="matrix(1,0,0,1,178,156)" stroke="white">
      <circle r="18" clip-path="url(#clipPath2)" cx="103.76" cy="193.952" stroke="none"/>
    </g>
    <g stroke-linecap="butt" transform="matrix(1,0,0,1,178,156)" fill="navy" text-rendering="geometricPrecision" shape-rendering="geometricPrecision" stroke="navy" stroke-width="3" stroke-miterlimit="1.45">
      <circle fill="none" r="18" clip-path="url(#clipPath2)" cx="103.76" cy="193.952"/>
    </g>
    <g text-rendering="geometricPrecision" stroke-miterlimit="1.45" shape-rendering="geometricPrecision" font-family="sans-serif" transform="matrix(1,0,0,1,178,156)" stroke-linecap="butt">
      <text x="91.9182" xml:space="preserve" y="198.6659" clip-path="url(#clipPath2)" stroke="none">t = 0</text>
    </g>
    <g fill="white" text-rendering="geometricPrecision" shape-rendering="geometricPrecision" transform="matrix(1,0,0,1,178,156)" stroke="white">
      <circle r="18" clip-path="url(#clipPath2)" cx="271.76" cy="193.952" stroke="none"/>
    </g>
    <g stroke-linecap="butt" transform="matrix(1,0,0,1,178,156)" fill="navy" text-rendering="geometricPrecision" shape-rendering="geometricPrecision" stroke="navy" stroke-width="3" stroke-miterlimit="1.45">
      <circle fill="none" r="18" clip-path="url(#clipPath2)" cx="271.76" cy="193.952"/>
    </g>
    <g text-rendering="geometricPrecision" stroke-miterlimit="1.45" shape-rendering="geometricPrecision" font-family="sans-serif" transform="matrix(1,0,0,1,178,156)" stroke-linecap="butt">
      <text x="259.9182" xml:space="preserve" y="198.6659" clip-path="url(#clipPath2)" stroke="none">t = 0</text>
    </g>
    <g fill="white" text-rendering="geometricPrecision" shape-rendering="geometricPrecision" transform="matrix(1,0,0,1,178,156)" stroke="white">
      <circle r="18" clip-path="url(#clipPath2)" cx="327.76" cy="193.952" stroke="none"/>
    </g>
    <g stroke-linecap="butt" transform="matrix(1,0,0,1,178,156)" fill="navy" text-rendering="geometricPrecision" shape-rendering="geometricPrecision" stroke="navy" stroke-width="3" stroke-miterlimit="1.45">
      <circle fill="none" r="18" clip-path="url(#clipPath2)" cx="327.76" cy="193.952"/>
    </g>
    <g text-rendering="geometricPrecision" stroke-miterlimit="1.45" shape-rendering="geometricPrecision" font-family="sans-serif" transform="matrix(1,0,0,1,178,156)" stroke-linecap="butt">
      <text x="315.9182" xml:space="preserve" y="198.6659" clip-path="url(#clipPath2)" stroke="none">t = 0</text>
    </g>
    <g fill="white" text-rendering="geometricPrecision" shape-rendering="geometricPrecision" transform="matrix(1,0,0,1,178,156)" stroke="white">
      <circle r="18" clip-path="url(#clipPath2)" cx="159.76" cy="193.952" stroke="none"/>
    </g>
    <g stroke-linecap="butt" transform="matrix(1,0,0,1,178,156)" fill="navy" text-rendering="geometricPrecision" shape-rendering="geometricPrecision" stroke="navy" stroke-width="3" stroke-miterlimit="1.45">
      <circle fill="none" r="18" clip-path="url(#clipPath2)" cx="159.76" cy="193.952"/>
    </g>
    <g text-rendering="geometricPrecision" stroke-miterlimit="1.45" shape-rendering="geometricPrecision" font-family="sans-serif" transform="matrix(1,0,0,1,178,156)" stroke-linecap="butt">
      <text x="147.9182" xml:space="preserve" y="198.6659" clip-path="url(#clipPath2)" stroke="none">t = 0</text>
    </g>
    <g fill="white" text-rendering="geometricPrecision" shape-rendering="geometricPrecision" transform="matrix(1,0,0,1,178,156)" stroke="white">
      <circle r="18" clip-path="url(#clipPath2)" cx="215.76" cy="193.952" stroke="none"/>
    </g>
    <g stroke-linecap="butt" transform="matrix(1,0,0,1,178,156)" fill="navy" text-rendering="geometricPrecision" shape-rendering="geometricPrecision" stroke="navy" stroke-width="3" stroke-miterlimit="1.45">
      <circle fill="none" r="18" clip-path="url(#clipPath2)" cx="215.76" cy="193.952"/>
    </g>
    <g text-rendering="geometricPrecision" stroke-miterlimit="1.45" shape-rendering="geometricPrecision" font-family="sans-serif" transform="matrix(1,0,0,1,178,156)" stroke-linecap="butt">
      <text x="203.9182" xml:space="preserve" y="198.6659" clip-path="url(#clipPath2)" stroke="none">t = 0</text>
    </g>
    <g fill="white" text-rendering="geometricPrecision" shape-rendering="geometricPrecision" transform="matrix(1,0,0,1,178,156)" stroke="white">
      <circle r="18" clip-path="url(#clipPath2)" cx="383.76" cy="193.952" stroke="none"/>
    </g>
    <g stroke-linecap="butt" transform="matrix(1,0,0,1,178,156)" fill="navy" text-rendering="geometricPrecision" shape-rendering="geometricPrecision" stroke="navy" stroke-width="3" stroke-miterlimit="1.45">
      <circle fill="none" r="18" clip-path="url(#clipPath2)" cx="383.76" cy="193.952"/>
    </g>
    <g text-rendering="geometricPrecision" stroke-miterlimit="1.45" shape-rendering="geometricPrecision" font-family="sans-serif" transform="matrix(1,0,0,1,178,156)" stroke-linecap="butt">
      <text x="371.9182" xml:space="preserve" y="198.6659" clip-path="url(#clipPath2)" stroke="none">t = 0</text>
    </g>
    <g fill="white" text-rendering="geometricPrecision" shape-rendering="geometricPrecision" transform="matrix(1,0,0,1,178,156)" stroke="white">
      <circle r="18" clip-path="url(#clipPath2)" cx="439.76" cy="193.952" stroke="none"/>
    </g>
    <g stroke-linecap="butt" transform="matrix(1,0,0,1,178,156)" fill="navy" text-rendering="geometricPrecision" shape-rendering="geometricPrecision" stroke="navy" stroke-width="3" stroke-miterlimit="1.45">
      <circle fill="none" r="18" clip-path="url(#clipPath2)" cx="439.76" cy="193.952"/>
    </g>
    <g text-rendering="geometricPrecision" stroke-miterlimit="1.45" shape-rendering="geometricPrecision" font-family="sans-serif" transform="matrix(1,0,0,1,178,156)" stroke-linecap="butt">
      <text x="427.9182" xml:space="preserve" y="198.6659" clip-path="url(#clipPath2)" stroke="none">t = 0</text>
      <text x="-48.6668" xml:space="preserve" y="-75.4469" clip-path="url(#clipPath2)" stroke="none">Level: Iteration</text>
      <text x="-77.6619" xml:space="preserve" y="-60.7458" clip-path="url(#clipPath2)" stroke="none">Call build tree from NUTS</text>
    </g>
    <g fill="white" text-rendering="geometricPrecision" shape-rendering="geometricPrecision" transform="matrix(1,0,0,1,178,156)" stroke="white">
      <rect x="-97.8" y="-91.0102" clip-path="url(#clipPath2)" width="160.56" rx="4" ry="4" height="42.16" stroke="none"/>
    </g>
    <g text-rendering="geometricPrecision" stroke-miterlimit="1.45" shape-rendering="geometricPrecision" transform="matrix(1,0,0,1,178,156)" stroke-linecap="butt">
      <rect x="-97.8" y="-91.0102" clip-path="url(#clipPath2)" fill="none" width="160.56" rx="4" ry="4" height="42.16"/>
      <text x="-90.5425" xml:space="preserve" y="-65.2163" clip-path="url(#clipPath2)" font-family="sans-serif" stroke="none">Call build_trees from NUTS</text>
      <text x="-80.8008" xml:space="preserve" y="55.7531" clip-path="url(#clipPath2)" font-family="sans-serif" stroke="none">Level: Recusion</text>
      <text x="-81.4629" xml:space="preserve" y="70.4542" clip-path="url(#clipPath2)" font-family="sans-serif" stroke="none">Calls build_Tree</text>
      <text x="-85.1998" xml:space="preserve" y="190.7931" clip-path="url(#clipPath2)" font-family="sans-serif" stroke="none">Level: Basecase</text>
      <text x="-81.8629" xml:space="preserve" y="205.4942" clip-path="url(#clipPath2)" font-family="sans-serif" stroke="none">Calls build_leaf</text>
      <path fill="none" d="M188.76 77.952 L188.76 93.452 L94.76 93.452 L94.76 100.952" clip-path="url(#clipPath2)"/>
      <path d="M94.76 108.952 L99.76 96.952 L94.76 99.952 L89.76 96.952 Z" clip-path="url(#clipPath2)" stroke="none"/>
      <path fill="none" d="M206.76 77.952 L206.76 100.952" clip-path="url(#clipPath2)"/>
      <path d="M206.76 108.952 L211.76 96.952 L206.76 99.952 L201.76 96.952 Z" clip-path="url(#clipPath2)" stroke="none"/>
      <path fill="none" d="M234.76 10.952 L234.76 26.452 L197.76 26.452 L197.76 33.952" clip-path="url(#clipPath2)"/>
      <path d="M197.76 41.952 L202.76 29.952 L197.76 32.952 L192.76 29.952 Z" clip-path="url(#clipPath2)" stroke="none"/>
      <path fill="none" d="M252.76 10.952 L252.76 26.452 L289.76 26.452 L289.76 33.952" clip-path="url(#clipPath2)"/>
      <path d="M289.76 41.952 L294.76 29.952 L289.76 32.952 L284.76 29.952 Z" clip-path="url(#clipPath2)" stroke="none"/>
      <path fill="none" d="M298.76 77.952 L298.76 93.452 L392.76 93.452 L392.76 100.952" clip-path="url(#clipPath2)"/>
      <path d="M392.76 108.952 L397.76 96.952 L392.76 99.952 L387.76 96.952 Z" clip-path="url(#clipPath2)" stroke="none"/>
      <path fill="none" d="M280.76 77.952 L280.76 100.952" clip-path="url(#clipPath2)"/>
      <path d="M280.76 108.952 L285.76 96.952 L280.76 99.952 L275.76 96.952 Z" clip-path="url(#clipPath2)" stroke="none"/>
      <path fill="none" d="M85.76 144.952 L85.76 160.452 L47.76 160.452 L47.76 167.952" clip-path="url(#clipPath2)"/>
      <path d="M47.76 175.952 L52.76 163.952 L47.76 166.952 L42.76 163.952 Z" clip-path="url(#clipPath2)" stroke="none"/>
      <path fill="none" d="M103.76 144.952 L103.76 167.952" clip-path="url(#clipPath2)"/>
      <path d="M103.76 175.952 L108.76 163.952 L103.76 166.952 L98.76 163.952 Z" clip-path="url(#clipPath2)" stroke="none"/>
      <path fill="none" d="M271.76 144.952 L271.76 167.952" clip-path="url(#clipPath2)"/>
      <path d="M271.76 175.952 L276.76 163.952 L271.76 166.952 L266.76 163.952 Z" clip-path="url(#clipPath2)" stroke="none"/>
      <path fill="none" d="M289.76 144.952 L289.76 160.452 L327.76 160.452 L327.76 167.952" clip-path="url(#clipPath2)"/>
      <path d="M327.76 175.952 L332.76 163.952 L327.76 166.952 L322.76 163.952 Z" clip-path="url(#clipPath2)" stroke="none"/>
      <path fill="none" d="M197.76 144.952 L197.76 160.452 L159.76 160.452 L159.76 167.952" clip-path="url(#clipPath2)"/>
      <path d="M159.76 175.952 L164.76 163.952 L159.76 166.952 L154.76 163.952 Z" clip-path="url(#clipPath2)" stroke="none"/>
      <path fill="none" d="M215.76 144.952 L215.76 167.952" clip-path="url(#clipPath2)"/>
      <path d="M215.76 175.952 L220.76 163.952 L215.76 166.952 L210.76 163.952 Z" clip-path="url(#clipPath2)" stroke="none"/>
      <path fill="none" d="M383.76 144.952 L383.76 167.952" clip-path="url(#clipPath2)"/>
      <path d="M383.76 175.952 L388.76 163.952 L383.76 166.952 L378.76 163.952 Z" clip-path="url(#clipPath2)" stroke="none"/>
      <path fill="none" d="M401.76 144.952 L401.76 160.452 L439.76 160.452 L439.76 167.952" clip-path="url(#clipPath2)"/>
      <path d="M439.76 175.952 L444.76 163.952 L439.76 166.952 L434.76 163.952 Z" clip-path="url(#clipPath2)" stroke="none"/>
      <path fill="none" d="M62.7585 -69.9302 L243.76 -69.9302 L243.76 -33.048" clip-path="url(#clipPath2)"/>
      <path d="M243.76 -25.048 L248.76 -37.048 L243.76 -34.048 L238.76 -37.048 Z" clip-path="url(#clipPath2)" stroke="none"/>
    </g>
  </g>
</svg>
